<svg width="59" height="64" viewBox="0 0 59 64" fill="none" xmlns="http://www.w3.org/2000/svg">
<path d="M22.8109 18.6619H17.9148V14.4033H28.661C28.661 14.4033 30.817 24.7266 20.3024 28.6883C18.3333 25.0861 17.9148 24.3659 17.9148 24.3659C17.9148 24.3659 22.3326 23.2248 22.8109 18.6619Z" fill="white"/>
<path d="M37.7407 31.5303H31.8545C31.4298 27.6638 28.1653 26.2697 27.22 25.9466C28.3546 24.7279 29.2137 23.2769 29.7384 21.693C35.4814 24.0114 37.2662 28.2838 37.7407 31.5278" fill="white"/>
<path d="M34.9359 8.59912H29.7695V13.7946H34.9359V8.59912Z" fill="white"/>
<path d="M6.19032 55.527L5.51492 52.2665C6.61729 52.1267 7.57992 51.9559 8.40282 51.7541C9.22571 51.5678 9.91663 51.3038 10.4756 50.9623C11.0345 50.6207 11.4537 50.1549 11.7332 49.5649C12.0127 48.9594 12.1524 48.183 12.1524 47.2359C12.1524 46.3199 12.0127 45.5901 11.7332 45.0467C11.4537 44.5033 11.0811 44.2316 10.6153 44.2316C10.2893 44.2316 10.0176 44.348 9.80019 44.5809C9.58282 44.7983 9.41979 45.0623 9.31111 45.3728C9.21795 45.6678 9.17137 45.9317 9.17137 46.1646C9.17137 46.3044 9.21019 46.4519 9.28782 46.6071C9.36545 46.7624 9.53624 46.8944 9.80019 47.003C10.0641 47.1117 10.4756 47.1738 11.0345 47.1894C11.609 47.2049 12.3853 47.1505 13.3635 47.0263H17.2761C17.8661 47.0263 18.2853 47.1816 18.5337 47.4921C18.7977 47.7871 18.9297 48.1598 18.9297 48.61C18.9297 49.0913 18.7666 49.495 18.4406 49.8211C18.1145 50.1316 17.6487 50.2869 17.0432 50.2869H10.6386C9.66045 50.2869 8.82203 50.1704 8.12334 49.9375C7.42466 49.7046 6.889 49.332 6.51637 48.8196C6.14374 48.2917 5.95742 47.593 5.95742 46.7236C5.95742 46.0249 6.07387 45.3262 6.30677 44.6275C6.55519 43.9288 6.89677 43.2923 7.3315 42.7178C7.76624 42.1278 8.27084 41.662 8.84532 41.3204C9.43532 40.9633 10.0719 40.7848 10.7551 40.7848C11.6866 40.7848 12.5018 41.072 13.2004 41.6465C13.8991 42.2209 14.4426 42.9817 14.8307 43.9288C15.2344 44.8759 15.4362 45.9084 15.4362 47.0263C15.4362 48.7808 15.0636 50.2713 14.3183 51.4979C13.5731 52.7245 12.5095 53.6716 11.1277 54.3392C9.74584 55.0224 8.10005 55.4183 6.19032 55.527ZM17.0761 50.2869L17.309 47.0263C17.6661 47.0263 17.9689 46.9409 18.2173 46.7701C18.4813 46.5838 18.753 46.2811 19.0325 45.8619C19.3119 45.4271 19.638 44.8449 20.0106 44.1151C20.4764 43.1836 20.9577 42.4538 21.4546 41.9259C21.9669 41.398 22.4871 41.0254 23.015 40.808C23.5584 40.5751 24.1018 40.4587 24.6452 40.4587C25.3284 40.4587 25.965 40.6062 26.555 40.9012C27.145 41.1962 27.6573 41.5999 28.0921 42.1123C28.5268 42.6091 28.8606 43.1836 29.0935 43.8357C29.3419 44.4723 29.4661 45.1321 29.4661 45.8153C29.4661 46.6382 29.2876 47.3834 28.9305 48.0511C28.5889 48.7032 28.1076 49.2233 27.4865 49.6115C26.881 49.9841 26.1823 50.1704 25.3905 50.1704C24.7229 50.1704 23.9465 50.054 23.0615 49.8211C22.1765 49.5882 21.245 49.0991 20.2668 48.3538L21.4546 45.5358C22.1533 46.0171 22.8054 46.3665 23.4109 46.5838C24.0319 46.8012 24.5443 46.9099 24.948 46.9099C25.2585 46.9099 25.5147 46.8788 25.7165 46.8167C25.9184 46.7546 26.0659 46.6537 26.159 46.514C26.2522 46.3742 26.2988 46.1879 26.2988 45.955C26.2988 45.629 26.2211 45.2951 26.0659 44.9536C25.9106 44.612 25.701 44.3248 25.4371 44.0919C25.1886 43.8434 24.8936 43.7192 24.5521 43.7192C24.226 43.7192 23.9465 43.8434 23.7136 44.0919C23.4963 44.3248 23.2789 44.6663 23.0615 45.1166C22.8597 45.5513 22.6113 46.0637 22.3163 46.6537C21.9592 47.3679 21.6098 47.9657 21.2683 48.447C20.9267 48.9128 20.5618 49.2854 20.1736 49.5649C19.801 49.8288 19.3585 50.0151 18.8461 50.1238C18.3493 50.2325 17.7593 50.2869 17.0761 50.2869ZM31.9588 55.527L31.2835 52.2665C32.3858 52.1267 33.3485 51.9559 34.1713 51.7541C34.9942 51.5678 35.6852 51.3038 36.2441 50.9623C36.8031 50.6207 37.2223 50.1549 37.5017 49.5649C37.7812 48.9594 37.921 48.183 37.921 47.2359C37.921 46.3199 37.7812 45.5901 37.5017 45.0467C37.2223 44.5033 36.8496 44.2316 36.3838 44.2316C36.0578 44.2316 35.7861 44.348 35.5687 44.5809C35.3513 44.7983 35.1883 45.0623 35.0796 45.3728C34.9865 45.6678 34.9399 45.9317 34.9399 46.1646C34.9399 46.3044 34.9787 46.4519 35.0563 46.6071C35.134 46.7624 35.3048 46.8944 35.5687 47.003C35.8327 47.1117 36.2441 47.1738 36.8031 47.1894C37.3775 47.2049 38.1538 47.1505 39.132 47.0263H43.0446C43.6346 47.0263 44.0538 47.1816 44.3023 47.4921C44.5662 47.7871 44.6982 48.1598 44.6982 48.61C44.6982 49.0913 44.5352 49.495 44.2091 49.8211C43.8831 50.1316 43.4173 50.2869 42.8117 50.2869H36.4071C35.429 50.2869 34.5906 50.1704 33.8919 49.9375C33.1932 49.7046 32.6575 49.332 32.2849 48.8196C31.9123 48.2917 31.726 47.593 31.726 46.7236C31.726 46.0249 31.8424 45.3262 32.0753 44.6275C32.3237 43.9288 32.6653 43.2923 33.1 42.7178C33.5348 42.1278 34.0394 41.662 34.6138 41.3204C35.2038 40.9633 35.8404 40.7848 36.5236 40.7848C37.4552 40.7848 38.2703 41.072 38.969 41.6465C39.6677 42.2209 40.2111 42.9817 40.5992 43.9288C41.0029 44.8759 41.2048 45.9084 41.2048 47.0263C41.2048 48.7808 40.8321 50.2713 40.0869 51.4979C39.3416 52.7245 38.2781 53.6716 36.8962 54.3392C35.5144 55.0224 33.8686 55.4183 31.9588 55.527ZM42.8447 50.2869L43.0776 47.0263C44.0091 47.0263 44.7234 46.9798 45.2202 46.8866C45.717 46.7934 46.0586 46.6226 46.2449 46.3742C46.4468 46.1103 46.5477 45.7376 46.5477 45.2563C46.5477 44.8216 46.4856 44.3015 46.3614 43.6959C46.2527 43.0904 46.1052 42.4616 45.9189 41.8095C45.7481 41.1574 45.5618 40.5596 45.3599 40.0162L48.5739 39.1312C48.7757 39.6591 48.9698 40.2724 49.1561 40.9711C49.3424 41.6698 49.4977 42.3917 49.6219 43.137C49.7461 43.8667 49.8082 44.5732 49.8082 45.2563C49.8082 46.3121 49.6374 47.1738 49.2959 47.8415C48.9543 48.4936 48.473 48.9982 47.8519 49.3553C47.2464 49.7124 46.5166 49.9608 45.6627 50.1005C44.8088 50.2248 43.8694 50.2869 42.8447 50.2869ZM49.1561 37.2448C48.7059 37.2448 48.3177 37.0895 47.9916 36.779C47.6811 36.4529 47.5259 36.0725 47.5259 35.6378C47.5259 35.1875 47.6811 34.7994 47.9916 34.4733C48.3177 34.1473 48.7059 33.9842 49.1561 33.9842C49.5909 33.9842 49.9635 34.1473 50.274 34.4733C50.5845 34.7994 50.7398 35.1875 50.7398 35.6378C50.7398 36.0725 50.5845 36.4529 50.274 36.779C49.9635 37.0895 49.5909 37.2448 49.1561 37.2448ZM45.127 37.2215C44.6768 37.2215 44.2886 37.0662 43.9626 36.7557C43.652 36.4296 43.4968 36.0492 43.4968 35.6145C43.4968 35.1642 43.652 34.7761 43.9626 34.45C44.2886 34.124 44.6768 33.9609 45.127 33.9609C45.5618 33.9609 45.9344 34.124 46.2449 34.45C46.5555 34.7761 46.7107 35.1642 46.7107 35.6145C46.7107 36.0492 46.5555 36.4296 46.2449 36.7557C45.9344 37.0662 45.5618 37.2215 45.127 37.2215Z" fill="white"/>
</svg>
